<?xml version="1.0" encoding="UTF-8" standalone="no"?>
<!-- Created with Inkscape (http://www.inkscape.org/) -->

<svg
   width="32"
   height="32"
   viewBox="0 0 1000 1000"
   version="1.1"
   id="svg1"
   xmlns="http://www.w3.org/2000/svg"
   xmlns:svg="http://www.w3.org/2000/svg">
  <defs
     id="defs1" />
  <path
     id="path1"
     style="fill:#F0F8FF;fill-rule:evenodd;stroke-width:1.71232"
     d="M 500,0 A 500,500 0 0 0 0,500 500,500 0 0 0 500,1000 500,500 0 0 0 1000,500 500,500 0 0 0 500,0 Z M 258.36,224.38 c 35.73,0 66.11,5.76 91.16,17.31 25.27,11.55 41.93,26.15 49.99,43.79 8.28,17.43 12.42,47.16 12.42,89.2 v 20.91 H 284.18 v -39.21 c 0,-18.3 -1.63,-29.94 -4.9,-34.95 -3.27,-5.01 -8.72,-7.52 -16.34,-7.52 -8.28,0 -14.59,3.37 -18.95,10.12 -4.14,6.75 -6.22,17 -6.22,30.73 0,17.65 2.41,30.92 7.2,39.85 4.57,8.93 17.53,19.71 38.87,32.35 61.21,36.38 99.77,66.23 115.67,89.54 15.9,23.31 23.86,60.89 23.86,112.73 0,37.69 -4.47,65.46 -13.4,83.32 -8.71,17.86 -25.71,32.89 -50.97,45.09 -25.27,11.98 -54.68,17.97 -88.22,17.97 -36.81,0 -68.29,-6.96 -94.43,-20.91 -25.92,-13.94 -42.91,-31.71 -50.97,-53.27 -8.06,-21.57 -12.1,-52.16 -12.1,-91.81 v -34.65 h 127.77 v 64.38 c 0,19.82 1.74,32.57 5.22,38.23 3.7,5.66 10.13,8.5 19.28,8.5 9.15,0 15.89,-3.59 20.25,-10.78 4.57,-7.19 6.86,-17.87 6.86,-32.03 0,-31.15 -4.25,-51.51 -12.74,-61.1 -8.71,-9.58 -30.16,-25.6 -64.36,-48.03 -34.2,-22.66 -56.87,-39.11 -67.98,-49.35 -11.11,-10.24 -20.36,-24.39 -27.77,-42.47 -7.19,-18.08 -10.78,-41.18 -10.78,-69.28 0,-40.52 5.12,-70.13 15.36,-88.87 10.46,-18.73 27.23,-33.33 50.32,-43.79 23.09,-10.67 50.97,-16.01 83.64,-16.01 z m 208.15,11.1 h 178.07 c 5.23,31.8 10.78,69.28 16.66,112.41 l 18.96,134.62 31.37,-247.03 h 179.4 V 764.51 H 770.71 V 407.36 L 722.68,764.51 H 637.4 L 586.75,415.54 V 764.51 H 466.51 Z" />
</svg>
