<?xml version="1.0" encoding="UTF-8" standalone="no"?>
<!-- Created with Inkscape (http://www.inkscape.org/) -->

<svg
   width="711.00299"
   height="644.78198"
   viewBox="0 0 188.11954 170.59857"
   version="1.1"
   id="svg20"
   xmlns="http://www.w3.org/2000/svg"
   xmlns:svg="http://www.w3.org/2000/svg">
  <defs
     id="defs1" />
  <g
     transform="translate(97.710055,-225.1468)"
     id="g20">
    <g
       transform="matrix(0.79606223,0,0,0.79606223,74.006706,-5.1319354)"
       id="g18">
      <path
         d="m -79.404972,320.99901 -18.136361,8.64288 v 7.05074 c 11.002561,2e-5 18.136361,-2.94349 18.136361,-2.94349 z m -18.136361,15.69362 v -7.05074 l -18.170987,-7.2533 v 11.35486 c 0,0 7.17043,2.94916 18.170987,2.94918 z"
         id="path16" />
      <path
         d="m -97.558903,309.2142 -29.406987,7.11274 29.406987,11.88093 29.421977,-13.92008 z"
         id="path17" />
      <path
         d="m -98.589848,316.39257 a 2.7451465,1.128177 6.1784785 0 0 -1.286226,0.12816 2.7451465,1.128177 6.1784785 0 0 -0.571546,1.4273 l -9.26506,5.34955 v 3.8623 c -0.91531,0.23986 -1.59058,1.07446 -1.5906,2.06499 6.5e-4,0.85291 0.50937,1.62341 1.29346,1.95905 -3.9e-4,-0.003 -2.53525,4.33875 -2.53525,4.33875 l 3.37447,5.24206 3.37447,-5.24206 -2.50992,-4.34754 c 0.77129,-0.3418 1.26862,-1.10612 1.26866,-1.94975 -3e-5,-0.9965 -0.68346,-1.83348 -1.60714,-2.06757 v -3.42873 l 9.118305,-5.32681 a 2.7451465,1.128177 6.1784785 0 0 3.129008,0.17932 2.7451465,1.128177 6.1784785 0 0 0.366903,-1.56321 2.7451465,1.128177 6.1784785 0 0 -2.559534,-0.62581 z"
         style="fill:#d4aa00"
         id="path18" />
    </g>
    <g
       transform="translate(248.64535,-73.868404)"
       id="g15">
      <path
         d="m -136.16171,321.5535 v 17.84852 h 4.0566 v -11.77396 l 1.70893,11.77396 h 2.87735 l 1.62057,-12.04991 v 12.04991 h 4.05712 V 321.5535 h -6.05235 l -1.05833,8.33437 -0.63975,-4.54184 c -0.19844,-1.4552 -0.38586,-2.71949 -0.56224,-3.79253 z"
         id="path14"
         transform="translate(-54.557307,-3.0294586)" />
      <path
         d="m -143.18454,321.17885 c -1.10243,0 -2.043,0.1799 -2.82205,0.54001 -0.77905,0.35278 -1.34479,0.84537 -1.69757,1.47743 -0.34543,0.63206 -0.51832,1.63126 -0.51832,2.99827 0,0.94809 0.12127,1.72732 0.3638,2.33732 0.24989,0.61003 0.56207,1.08757 0.9369,1.43299 0.37483,0.34542 1.13953,0.90065 2.2934,1.66502 1.15388,0.75698 1.87746,1.2972 2.17144,1.62057 0.28664,0.32339 0.42995,1.01039 0.42995,2.06137 0,0.47772 -0.0772,0.83802 -0.23151,1.08056 -0.14699,0.24253 -0.37448,0.3638 -0.68316,0.3638 -0.30868,0 -0.52567,-0.0957 -0.65061,-0.28681 -0.11759,-0.19108 -0.17622,-0.62103 -0.17622,-1.28984 v -2.17196 h -4.31084 v 1.16892 c 0,1.33763 0.13631,2.36989 0.40824,3.09749 0.27193,0.7276 0.84519,1.32694 1.71979,1.7973 0.88194,0.47038 1.94378,0.70539 3.18585,0.70539 1.13183,0 2.12402,-0.20194 2.97657,-0.60617 0.85254,-0.41157 1.42581,-0.91869 1.71979,-1.52135 0.30133,-0.60265 0.45217,-1.53971 0.45217,-2.8112 0,-1.74917 -0.2686,-3.01699 -0.80512,-3.80339 -0.53652,-0.78641 -1.83739,-1.79363 -3.90261,-3.021 -0.72025,-0.42628 -1.1572,-0.79008 -1.31154,-1.09141 -0.16169,-0.30132 -0.24288,-0.7493 -0.24288,-1.34462 0,-0.46302 0.0702,-0.80879 0.2098,-1.03663 0.14699,-0.22784 0.35995,-0.34158 0.63924,-0.34158 0.25723,0 0.44115,0.0847 0.55139,0.25373 0.11024,0.16904 0.16536,0.5619 0.16536,1.17926 v 1.32292 h 4.31033 v -0.70539 c 0,-1.41844 -0.13981,-2.42165 -0.41909,-3.00963 -0.27194,-0.59531 -0.83418,-1.08791 -1.68672,-1.47743 -0.8452,-0.38952 -1.87046,-0.58394 -3.07578,-0.58394 z"
         id="path15"
         transform="translate(-54.557307,-3.0294586)" />
    </g>
    <g
       transform="translate(32.354651,-69.941742)"
       id="g14"
       style="fill:#000000">
      <path
         d="m -98.711453,311.78351 3.198657,8.57478 9.14355,0.39235 -7.166669,5.69186 2.45236,8.81728 -7.627898,-5.05702 -7.627907,5.05702 2.45236,-8.81728 -7.16666,-5.69186 9.14354,-0.39235 z"
         id="path13"
         style="fill:#000000" />
    </g>
    <g
       transform="matrix(0.79606223,0,0,0.79606223,11.300189,51.73425)"
       id="g12">
      <path
         d="m -79.404972,320.99901 -18.136361,8.64288 v 7.05074 c 11.002561,2e-5 18.136361,-2.94349 18.136361,-2.94349 z m -18.136361,15.69362 v -7.05074 l -18.170987,-7.2533 v 11.35486 c 0,0 7.17043,2.94916 18.170987,2.94918 z"
         id="path10" />
      <path
         d="m -97.558903,309.2142 -29.406987,7.11274 29.406987,11.88093 29.421977,-13.92008 z"
         id="path11" />
      <path
         d="m -98.589848,316.39257 a 2.7451465,1.128177 6.1784785 0 0 -1.286226,0.12816 2.7451465,1.128177 6.1784785 0 0 -0.571546,1.4273 l -9.26506,5.34955 v 3.8623 c -0.91531,0.23986 -1.59058,1.07446 -1.5906,2.06499 6.5e-4,0.85291 0.50937,1.62341 1.29346,1.95905 -3.9e-4,-0.003 -2.53525,4.33875 -2.53525,4.33875 l 3.37447,5.24206 3.37447,-5.24206 -2.50992,-4.34754 c 0.77129,-0.3418 1.26862,-1.10612 1.26866,-1.94975 -3e-5,-0.9965 -0.68346,-1.83348 -1.60714,-2.06757 v -3.42873 l 9.118305,-5.32681 a 2.7451465,1.128177 6.1784785 0 0 3.129008,0.17932 2.7451465,1.128177 6.1784785 0 0 0.366903,-1.56321 2.7451465,1.128177 6.1784785 0 0 -2.559534,-0.62581 z"
         style="fill:#d4aa00"
         id="path12" />
    </g>
    <g
       transform="translate(185.93882,-17.002212)"
       id="g9">
      <path
         d="m -136.16171,321.5535 v 17.84852 h 4.0566 v -11.77396 l 1.70893,11.77396 h 2.87735 l 1.62057,-12.04991 v 12.04991 h 4.05712 V 321.5535 h -6.05235 l -1.05833,8.33437 -0.63975,-4.54184 c -0.19844,-1.4552 -0.38586,-2.71949 -0.56224,-3.79253 z"
         transform="translate(-54.557294,-3.0294647)"
         id="path8" />
      <path
         d="m -143.18454,321.17885 c -1.10243,0 -2.043,0.1799 -2.82205,0.54001 -0.77905,0.35278 -1.34479,0.84537 -1.69757,1.47743 -0.34543,0.63206 -0.51832,1.63126 -0.51832,2.99827 0,0.94809 0.12127,1.72732 0.3638,2.33732 0.24989,0.61003 0.56207,1.08757 0.9369,1.43299 0.37483,0.34542 1.13953,0.90065 2.2934,1.66502 1.15388,0.75698 1.87746,1.2972 2.17144,1.62057 0.28664,0.32339 0.42995,1.01039 0.42995,2.06137 0,0.47772 -0.0772,0.83802 -0.23151,1.08056 -0.14699,0.24253 -0.37448,0.3638 -0.68316,0.3638 -0.30868,0 -0.52567,-0.0957 -0.65061,-0.28681 -0.11759,-0.19108 -0.17622,-0.62103 -0.17622,-1.28984 v -2.17196 h -4.31084 v 1.16892 c 0,1.33763 0.13631,2.36989 0.40824,3.09749 0.27193,0.7276 0.84519,1.32694 1.71979,1.7973 0.88194,0.47038 1.94378,0.70539 3.18585,0.70539 1.13183,0 2.12402,-0.20194 2.97657,-0.60617 0.85254,-0.41157 1.42581,-0.91869 1.71979,-1.52135 0.30133,-0.60265 0.45217,-1.53971 0.45217,-2.8112 0,-1.74917 -0.2686,-3.01699 -0.80512,-3.80339 -0.53652,-0.78641 -1.83739,-1.79363 -3.90261,-3.021 -0.72025,-0.42628 -1.1572,-0.79008 -1.31154,-1.09141 -0.16169,-0.30132 -0.24288,-0.7493 -0.24288,-1.34462 0,-0.46302 0.0702,-0.80879 0.2098,-1.03663 0.14699,-0.22784 0.35995,-0.34158 0.63924,-0.34158 0.25723,0 0.44115,0.0847 0.55139,0.25373 0.11024,0.16904 0.16536,0.5619 0.16536,1.17926 v 1.32292 h 4.31033 v -0.70539 c 0,-1.41844 -0.13981,-2.42165 -0.41909,-3.00963 -0.27194,-0.59531 -0.83418,-1.08791 -1.68672,-1.47743 -0.8452,-0.38952 -1.87046,-0.58394 -3.07578,-0.58394 z"
         transform="translate(-54.557294,-3.0294647)"
         id="path9" />
    </g>
    <g
       transform="translate(157.76768,-13.075557)"
       id="g8">
      <path
         d="m -98.711453,311.78351 3.198657,8.57478 9.14355,0.39235 -7.166669,5.69186 2.45236,8.81728 -7.627898,-5.05702 -7.627907,5.05702 2.45236,-8.81728 -7.16666,-5.69186 9.14354,-0.39235 z"
         id="path7" />
    </g>
    <g
       transform="translate(123.2323,39.863974)"
       id="g6">
      <path
         d="m -136.16171,321.5535 v 17.84852 h 4.0566 v -11.77396 l 1.70893,11.77396 h 2.87735 l 1.62057,-12.04991 v 12.04991 h 4.05712 V 321.5535 h -6.05235 l -1.05833,8.33437 -0.63975,-4.54184 c -0.19844,-1.4552 -0.38586,-2.71949 -0.56224,-3.79253 z"
         transform="translate(-54.557296,-3.0294648)"
         id="path5" />
      <path
         d="m -143.18454,321.17885 c -1.10243,0 -2.043,0.1799 -2.82205,0.54001 -0.77905,0.35278 -1.34479,0.84537 -1.69757,1.47743 -0.34543,0.63206 -0.51832,1.63126 -0.51832,2.99827 0,0.94809 0.12127,1.72732 0.3638,2.33732 0.24989,0.61003 0.56207,1.08757 0.9369,1.43299 0.37483,0.34542 1.13953,0.90065 2.2934,1.66502 1.15388,0.75698 1.87746,1.2972 2.17144,1.62057 0.28664,0.32339 0.42995,1.01039 0.42995,2.06137 0,0.47772 -0.0772,0.83802 -0.23151,1.08056 -0.14699,0.24253 -0.37448,0.3638 -0.68316,0.3638 -0.30868,0 -0.52567,-0.0957 -0.65061,-0.28681 -0.11759,-0.19108 -0.17622,-0.62103 -0.17622,-1.28984 v -2.17196 h -4.31084 v 1.16892 c 0,1.33763 0.13631,2.36989 0.40824,3.09749 0.27193,0.7276 0.84519,1.32694 1.71979,1.7973 0.88194,0.47038 1.94378,0.70539 3.18585,0.70539 1.13183,0 2.12402,-0.20194 2.97657,-0.60617 0.85254,-0.41157 1.42581,-0.91869 1.71979,-1.52135 0.30133,-0.60265 0.45217,-1.53971 0.45217,-2.8112 0,-1.74917 -0.2686,-3.01699 -0.80512,-3.80339 -0.53652,-0.78641 -1.83739,-1.79363 -3.90261,-3.021 -0.72025,-0.42628 -1.1572,-0.79008 -1.31154,-1.09141 -0.16169,-0.30132 -0.24288,-0.7493 -0.24288,-1.34462 0,-0.46302 0.0702,-0.80879 0.2098,-1.03663 0.14699,-0.22784 0.35995,-0.34158 0.63924,-0.34158 0.25723,0 0.44115,0.0847 0.55139,0.25373 0.11024,0.16904 0.16536,0.5619 0.16536,1.17926 v 1.32292 h 4.31033 v -0.70539 c 0,-1.41844 -0.13981,-2.42165 -0.41909,-3.00963 -0.27194,-0.59531 -0.83418,-1.08791 -1.68672,-1.47743 -0.8452,-0.38952 -1.87046,-0.58394 -3.07578,-0.58394 z"
         id="path6"
         transform="translate(-54.557296,-3.0294648)" />
    </g>
    <g
       transform="translate(145.61826,42.6421)"
       id="g4">
      <path
         d="m -132.98291,319.41492 -9.99645,3.72898 -0.4574,10.65951 -6.63554,-8.35487 -10.27914,2.85895 5.89545,-8.89257 -5.89545,-8.89258 10.27914,2.85895 6.63554,-8.35486 0.4574,10.6595 z"
         id="path4"
         transform="matrix(0,-0.85778337,0.85778337,0,-423.25735,198.86151)" />
    </g>
    <g
       transform="matrix(0.79606223,0,0,0.79606223,136.70178,108.60044)"
       id="g3">
      <path
         d="m -79.390601,320.99901 -18.136361,8.64288 v 7.05074 c 11.002561,2e-5 18.136361,-2.94349 18.136361,-2.94349 z m -18.136361,15.69362 v -7.05074 l -18.170988,-7.2533 v 11.35486 c 0,0 7.17043,2.94916 18.170988,2.94918 z"
         id="path1" />
      <path
         d="m -97.544532,309.2142 -29.406988,7.11274 29.406988,11.88093 29.421977,-13.92008 z"
         id="path2" />
      <path
         d="m -98.575477,316.39257 a 2.7451465,1.128177 6.1784785 0 0 -1.286226,0.12816 2.7451465,1.128177 6.1784785 0 0 -0.571547,1.4273 l -9.26506,5.34955 v 3.8623 c -0.91531,0.23986 -1.59058,1.07446 -1.5906,2.06499 6.5e-4,0.85291 0.50937,1.62341 1.29346,1.95905 -3.9e-4,-0.003 -2.53525,4.33875 -2.53525,4.33875 l 3.37447,5.24206 3.37447,-5.24206 -2.50992,-4.34754 c 0.77129,-0.3418 1.26862,-1.10612 1.26866,-1.94975 -3e-5,-0.9965 -0.68346,-1.83348 -1.60714,-2.06757 v -3.42873 l 9.118306,-5.32681 a 2.7451465,1.128177 6.1784785 0 0 3.129008,0.17932 2.7451465,1.128177 6.1784785 0 0 0.366903,-1.56321 2.7451465,1.128177 6.1784785 0 0 -2.559534,-0.62581 z"
         style="fill:#d4aa00;stroke-width:0.0798961"
         id="path3" />
    </g>
  </g>
</svg>
